HIERARCHY
ROOT hip
{
	OFFSET 0.000000 0.000000 0.000000 
	CHANNELS 6 Xposition Yposition Zposition Xrotation Zrotation Yrotation
	JOINT abdomen
	{
		OFFSET 0.000000 3.402643 0.000000 
		CHANNELS 3 Xrotation Zrotation Yrotation
		JOINT chest
		{
			OFFSET 0.000000 8.438565 -0.680529 
			CHANNELS 3 Xrotation Zrotation Yrotation
			JOINT neck
			{
				OFFSET 0.000000 10.207942 -0.272212 
				CHANNELS 3 Xrotation Zrotation Yrotation
				JOINT head
				{
					OFFSET 0.000000 3.130431 0.000000 
					CHANNELS 3 Xrotation Zrotation Yrotation
					End Site
					{
						OFFSET 0.000000 3.130435 0.000000 
					}
				}
			}
			JOINT lCollar
			{
				OFFSET 3.470700 6.669187 -0.816635 
				CHANNELS 3 Yrotation Zrotation Xrotation
				JOINT lShldr
				{
					OFFSET 3.198488 0.000000 0.000000 
					CHANNELS 3 Zrotation Yrotation Xrotation
					JOINT lForeArm
					{
						OFFSET 10.139888 0.000000 0.000000 
						CHANNELS 3 Yrotation Zrotation Xrotation
						JOINT lHand
						{
							OFFSET 8.370511 0.000000 0.000000 
							CHANNELS 3 Zrotation Yrotation Xrotation
							End Site
							{
								OFFSET 4.083176 0.000000 0.000000 
							}
						}
					}
				}
			}
			JOINT rCollar
			{
				OFFSET -3.470700 6.669187 -0.816635 
				CHANNELS 3 Yrotation Zrotation Xrotation
				JOINT rShldr
				{
					OFFSET -3.198488 0.000000 0.000000 
					CHANNELS 3 Zrotation Yrotation Xrotation
					JOINT rForeArm
					{
						OFFSET -10.139888 0.000000 0.000000 
						CHANNELS 3 Yrotation Zrotation Xrotation
						JOINT rHand
						{
							OFFSET -8.370511 0.000000 0.000000 
							CHANNELS 3 Zrotation Yrotation Xrotation
							End Site
							{
								OFFSET -4.083176 0.000000 0.000000 
							}
						}
					}
				}
			}
		}
	}
	JOINT lThigh
	{
		OFFSET 5.308129 -1.633274 1.361059 
		CHANNELS 3 Xrotation Zrotation Yrotation
		JOINT lShin
		{
			OFFSET -2.041588 -20.007561 0.000000 
			CHANNELS 3 Xrotation Zrotation Yrotation
			JOINT lFoot
			{
				OFFSET 0.000000 -19.190928 -1.224953 
				CHANNELS 3 Xrotation Yrotation Zrotation
				End Site
				{
					OFFSET 0.000000 -2.449906 4.627600 
				}
			}
		}
	}
	JOINT rThigh
	{
		OFFSET -5.308129 -1.633274 1.361059 
		CHANNELS 3 Xrotation Zrotation Yrotation
		JOINT rShin
		{
			OFFSET 2.041588 -20.007561 0.000000 
			CHANNELS 3 Xrotation Zrotation Yrotation
			JOINT rFoot
			{
				OFFSET 0.000000 -19.190928 -1.224953 
				CHANNELS 3 Xrotation Yrotation Zrotation
				End Site
				{
					OFFSET 0.000000 -2.449906 4.627600 
				}
			}
		}
	}
}
MOTION
Frames: 8
Frame Time: 0.033333
-58.009106 49.172428 19.796467 -0.627985 5.389015 151.228500 0.000000 0.000000 0.000000 4.530542 -0.927292 0.048421 2.493249 -3.036844 -4.655347 9.350935 5.221805 -6.354193 0.480192 -10.553720 4.859116 -59.513397 -19.307775 9.025802 -115.795815 8.538112 29.091644 -4.532361 1.066685 -3.375196 3.329597 9.566831 4.534193 64.649986 19.040148 49.676353 118.708252 -19.242456 23.803091 -10.623679 -3.945305 -3.457154 -9.489433 11.187675 4.412669 21.226816 -0.432791 20.196587 -7.058667 0.436026 -7.577010 -0.645364 -15.324737 -9.517849 22.806519 0.993879 6.157839 2.122996 0.338925 17.630932 
-57.574337 49.251347 20.469980 -0.316926 4.903174 151.115234 0.000000 0.000000 0.000000 4.354557 -1.053294 0.168231 2.565897 -3.007094 -4.782120 9.573968 5.538202 -6.710568 0.168117 -9.352646 4.642919 -60.573929 -21.763985 9.728074 -115.621223 8.829928 30.318739 -4.035107 0.420572 -3.348219 3.154411 8.880433 4.426659 66.571121 18.411173 49.938526 119.325630 -19.271898 23.258656 -10.631045 -3.976414 -3.460537 -8.766534 11.518805 4.645759 18.992773 -0.618948 19.789854 -5.281480 0.371210 -7.619579 0.711800 -16.461151 -9.896412 22.561457 0.154099 6.181002 4.090947 0.703771 19.390429 
-57.047108 49.287037 21.355846 -0.602935 4.738034 151.064270 0.000000 0.000000 0.000000 4.052366 -0.673207 0.142113 2.426934 -2.879872 -4.947907 9.482421 5.449258 -6.857310 -0.280838 -8.599924 4.336489 -60.418938 -24.127872 10.138033 -115.402206 8.897835 30.336002 -3.939402 -0.385178 -3.311462 3.396103 8.769114 4.110034 67.607559 18.210293 50.287895 120.399063 -19.276697 23.696440 -10.959440 -4.765541 -3.394383 -8.835483 12.554335 4.916202 17.104376 -0.577886 19.287285 -3.354624 0.250945 -7.974667 1.082124 -16.719603 -10.214051 23.089098 -0.236675 3.911183 4.956456 0.873632 19.580315 
-56.416279 49.287804 22.289394 -0.586946 4.629640 150.558701 0.000000 0.000000 0.000000 4.013618 -0.381682 0.320548 2.160586 -2.647359 -4.692860 9.019084 5.237014 -6.756455 -0.187189 -7.681840 4.306135 -60.550270 -26.376450 10.758874 -115.249840 9.062601 30.959530 -4.010707 -1.014468 -3.276732 3.649256 8.560451 4.086732 68.162529 18.679476 50.796333 121.012276 -19.439240 24.004013 -10.680626 -4.263528 -3.432210 -8.261977 13.652402 5.412843 14.915682 -0.496838 19.055370 -1.252617 0.113128 -8.543436 2.284611 -17.078114 -10.107321 22.599930 -0.744185 5.077327 6.641727 1.283948 21.459772 
-55.703602 49.128792 23.245840 0.231059 4.295607 149.534515 0.000000 0.000000 0.000000 4.316305 -0.666142 0.631903 2.078373 -2.386241 -4.173618 8.850587 4.949670 -6.390530 0.336981 -6.772091 4.593195 -60.717697 -28.591602 11.250871 -115.208000 9.183174 31.597836 -4.018286 -2.421884 -3.205088 4.593807 8.014581 4.340380 68.229912 19.681635 51.401249 121.635971 -19.770903 24.931589 -10.586826 -4.639978 -3.405293 -7.390312 14.378723 5.913127 13.815647 -0.500272 18.743282 0.210531 -0.008083 -9.487811 3.464393 -18.011621 -9.956413 23.321762 -1.309821 8.537930 5.224999 1.004194 21.392126 
-54.880470 48.815678 24.398375 0.906650 3.747751 148.469879 0.000000 0.000000 0.000000 4.374770 -1.016822 0.969135 2.137205 -2.416927 -3.665437 8.796227 4.777562 -6.105061 0.775467 -7.001385 4.664433 -59.536053 -30.199730 11.615901 -114.862541 9.551490 32.933208 -4.130684 -3.024589 -3.175645 5.092455 7.930549 4.394854 67.744934 20.554800 51.939228 121.883194 -19.831757 24.009550 -10.366277 -3.545710 -3.496615 -7.487200 15.226662 6.163903 13.953776 -0.283477 18.790445 1.344533 -0.120047 -10.957775 3.093407 -18.627102 -9.456287 25.532644 -1.876845 9.578958 2.032753 0.389104 20.931030 
-54.006916 48.427700 25.767065 0.375532 2.959487 147.549347 0.000000 0.000000 0.000000 3.662098 -1.022483 1.116807 1.754996 -2.398611 -3.196280 8.690380 4.596227 -5.721503 0.946589 -7.227180 4.016303 -58.356350 -30.770620 12.289843 -114.626122 9.734239 32.635380 -3.507900 -3.302251 -3.187858 5.529251 7.650727 3.742220 67.936867 21.213367 53.078808 121.736702 -20.211502 24.925394 -10.299501 -3.226666 -3.519380 -9.166326 16.671347 6.238943 14.268067 -0.087802 19.160227 2.809849 -0.277034 -12.457026 3.298397 -18.460623 -8.705177 23.809650 -1.865338 13.367898 -4.420636 -0.685753 18.336145 
-53.028015 47.853844 27.299095 0.889746 2.561221 146.896667 0.000000 0.000000 0.000000 3.955151 -1.214320 1.370151 1.947418 -2.419310 -2.639314 8.204803 4.336309 -5.385947 1.018973 -7.513798 4.265908 -57.061066 -31.358334 12.493286 -114.409943 9.710388 31.416739 -5.116691 -2.912300 -3.128677 5.618766 7.677025 4.025908 68.281616 22.438040 54.174793 121.598595 -20.593054 25.804533 -10.392855 -3.439746 -3.504970 -10.328712 18.059105 6.122277 15.352680 0.487723 18.961689 4.107343 -0.498464 -14.440271 3.444077 -18.164976 -7.855349 24.670547 -1.923891 16.387375 -11.796317 -1.586400 15.304691 
